<svg id="Camada_1" data-name="Camada 1" xmlns="http://www.w3.org/2000/svg" viewBox="0 0 19 19"><defs><style>.cls-1{fill:#D85127;}</style></defs><title>wm_Prancheta 19</title><path class="cls-1" d="M4.85,17.2a.47.47,0,0,1-.35-.15L2,14.5a.5.5,0,0,1,0-.7L15.6.15A.47.47,0,0,1,16,0h0a.49.49,0,0,1,.36.15l2.54,2.54a.5.5,0,0,1,0,.71L5.2,17.05A.47.47,0,0,1,4.85,17.2ZM3,14.15,4.85,16,17.79,3.05,16,1.21Z"/><path class="cls-1" d="M.5,19a.47.47,0,0,1-.35-.15A.47.47,0,0,1,0,18.31L1.84,14a.5.5,0,0,1,.66-.27.51.51,0,0,1,.27.65L1.43,17.58l3.23-1.35a.51.51,0,0,1,.65.27.5.5,0,0,1-.27.66L.69,19A.43.43,0,0,1,.5,19Z"/><path class="cls-1" d="M16,6a.51.51,0,0,1-.36-.15l-4-4-4,4A.5.5,0,0,1,7,5.11L11.32.77a.47.47,0,0,1,.35-.15h0A.49.49,0,0,1,12,.77l4.34,4.34a.5.5,0,0,1,0,.71A.49.49,0,0,1,16,6Z"/></svg>