<svg xmlns="http://www.w3.org/2000/svg" viewBox="299.3 191.575 513.4 545.1">
  <path d="M597.9 191.6C591.7 192.1 585.6 193 579.7 194.3 573.1 195.7 571.6 195.8 561.6 195.3 545.6 194.5 530.4 196.8 517.3 201.9 500 208.7 486.5 220.4 477 237.1 469.1 250.8 464.3 266.2 462.4 283.8 461.9 288.4 461.9 304.1 462.3 309 462.6 312.5 463.4 319 463.6 320 463.7 320.6 463.6 320.6 462.5 321.1 460.1 322.1 454.7 324.9 451.9 326.5 442.8 332 434.8 339.2 429 347.3 422 356.8 417.8 367.7 416.5 379.5 415.9 384 416.1 392.7 416.8 397.1 418.4 407.3 421 414.8 427.9 428.5 432.8 438.2 438.4 448.3 446.2 461.4 448.3 464.7 449.9 467.5 449.9 467.6 449.8 467.6 440.2 472.7 428.6 478.9 387.3 501 377 506.4 354.5 517.7 345.5 522.2 336.7 526.7 335.1 527.6 318 537.5 307.3 549.7 302.1 565.5 300.4 570.5 299.3 576 299.3 579 299.3 582.4 300.5 583.9 304 584.7 305.4 585 307.3 585 322.3 584.8 331.4 584.6 344.7 584.5 351.8 584.4 377 584.2 395.6 583.7 400.2 583.1 407.3 582.2 414.7 579.7 419.4 576.7 424.9 573.2 454.3 552 483 530.9 486 528.7 488.5 526.9 488.6 526.9 488.8 526.8 489.9 528.2 491.2 529.9 505.1 548.7 517.4 559.7 532.5 567.2 535.7 568.7 537.2 569.4 543.5 571.8 546.1 572.8 548.5 574.2 550.9 576.2 553.1 578 554 578.8 562.4 586.9 572.7 596.7 577.7 601.3 584 606.6 590.9 612.3 598.9 618.1 604.5 621.5 625.9 634.2 650.5 637.9 672.7 631.7 680.4 629.6 688.3 625.8 694.4 621.4L696.3 620.1 701.5 620.3C718.7 621 733.4 618.3 746.1 612 764.8 602.6 777.1 586.2 781.7 564.5 782.9 559.1 783.7 552 783.9 545.9 784 544 784.1 541.9 784.2 541.3L784.3 540.1 786.2 538.7C800 528.8 808.9 515.3 811.7 500 813.2 491.6 813 483.7 810.8 472.2 809 463 806.8 456.4 802.4 447.7 799.4 441.8 798.5 439.6 797.6 436.2 796.7 432.7 796.4 430.7 796.4 426.9 796.4 423.1 796.7 420.9 798 415.6 799.8 408.3 800.4 403.8 800.6 396.7 801.4 371.1 790.6 345.5 768.9 321.6 760.2 312 749 302 733.2 289.7 731.6 288.5 730.1 287.2 729.9 287 729.8 286.7 729.5 285.7 729.3 284.8 726.7 273.1 721.7 261.5 715.5 252.9 701.3 233.2 680.6 216.4 655.3 204.2 642.9 198.1 626.8 193.5 613.4 192.1 610.3 191.7 600.4 191.5 597.9 191.6ZM609.6 247.5C616.8 248.5 625.7 251.4 632.8 255 647.9 262.5 661 272.9 669.2 283.8 672.4 288 673.6 290.9 675.5 298.5 677.8 307.6 680.6 313.9 685.2 320.1 688.9 324.9 692.2 328.2 698.5 333.1 715.3 346.2 725.3 355.5 732.7 364.8 738.3 371.8 742.3 379.4 744.1 386 744.8 389 744.9 389.5 745.1 392.3 745.4 395.3 745.1 398.6 744.1 402.4 741.6 412.7 740.8 419.8 741 429.5 741.1 435.5 741.6 439.6 742.6 444.8 744.5 454 748.3 464.6 752.7 472.6 754.3 475.4 755 477.2 755.7 480 756.4 482.9 757.2 487.4 757.2 489.1L757.2 490.4 755.4 492.1C754.3 493.2 752.8 494.3 751.2 495.3 742.9 500.4 737.4 506.2 733.6 514 730.5 520.3 729.3 525.6 728.9 534.5 728.2 550.6 727.8 553.8 725.9 557.6 724.1 561.4 720.2 563.6 713.4 564.6 711.2 564.9 704.8 564.9 697.3 564.7 691.3 564.5 688.5 564.7 683.8 565.6 676.5 567 669.2 570.5 663.4 575.2 660.2 577.8 657 578.9 652.3 579.1 649 579.3 646.5 579 643.1 578.1 637.6 576.6 633.3 574.4 626.2 569.1 619.4 564.1 613.4 558.7 599.8 545.7 589.6 535.8 586.6 533.2 581.2 529.4 575.8 525.6 568.7 521.9 562.1 519.5 555.7 517 552.1 514.9 547.5 510.5 541.1 504.4 532.9 493.6 520.8 475.4 499.8 443.9 478.5 407.8 473.3 394.5 470.3 387.2 471 382.6 475.7 377.9 478.4 375.2 482.3 372.9 486.3 371.4 487.2 371 489.5 370.4 491.3 369.9 494 369.2 495 368.8 497.4 367.6 510.6 360.7 518 351.1 520.5 337.8 521 335.3 521.1 329.2 520.8 326 520.6 324.6 520.2 321.9 519.9 320 517.3 306.6 516.7 297.6 517.8 287.9 518.9 278.5 522 269.4 526.5 262.5 528 260.2 531.6 256.7 533.9 255.4 537.4 253.3 541.7 252 547 251.1 549.9 250.7 557 250.6 567.1 250.9 575.9 251.2 581.7 250.7 590 248.8 592.2 248.3 595.2 247.7 596.6 247.5 600.4 246.9 605.8 246.9 609.6 247.5ZM386.2 594.9C381.2 597.6 377.2 600 361.7 610 358.2 612.3 353 615.7 350.1 617.6 343.9 621.8 343 622.3 340.8 623.1 337.5 624.2 335.3 623.8 327.5 621.2 324.6 620.2 319.3 618.4 315.6 617.2L308.9 614.9 306.5 615.2 304.2 615.5 304.2 618.1C304.2 621 304 619.9 309.3 654.6 314 685.6 315.7 697 316.3 702 318.8 723.1 319.1 724.8 321.1 727.5 323 730.2 327.5 732.5 333.4 733.8 338 734.8 342.4 735.2 357.1 735.7 381.9 736.6 410.1 737 416.4 736.5 429 735.5 437.4 732.7 440.7 728.3 441.7 726.9 442.8 724.3 443.3 722 443.8 720 443.8 716.3 443.2 714.2 442.8 712.3 429.3 678.6 419.1 653.4 409.1 629.1 396.4 598.1 396 597.5 395.9 597.1 394.8 595.8 393.6 594.6L391.4 592.3 386.2 594.9Z" fill="#C82026"/>
</svg>