<svg id="Camada_1" data-name="Camada 1" xmlns="http://www.w3.org/2000/svg" viewBox="0 0 128.34 34"><defs><style>.cls-1{fill:#f0e1d3;}</style></defs><title>ws_Prancheta 33</title><g id="crWxot"><path class="cls-1" d="M54.73,8.35a3.15,3.15,0,0,0-.36,1c0,3.69,0,7.38,0,11.07,0,3.91,0,7.82,0,11.73,0,1.4-.8,2-2.1,1.46a1.07,1.07,0,0,1-.48-.64,3.11,3.11,0,0,1-.11-1V1.83c0-1.31.55-1.78,1.84-1.61.78.1.84.82,1.1,1.31.78,1.47,1.48,3,2.22,4.47.61,1.24,1.24,2.48,1.86,3.72.84,1.7,1.69,3.4,2.53,5.11,1.09,2.2,2.16,4.42,3.26,6.62.92,1.85,1.88,3.68,2.82,5.52.27.54.53,1.09.81,1.62a6.91,6.91,0,0,0,.54.73c.89-1.84,1.7-3.55,2.55-5.25.7-1.42,1.45-2.82,2.16-4.24s1.43-3,2.18-4.51c.83-1.67,1.71-3.31,2.55-5,.4-.79.74-1.6,1.13-2.38.64-1.26,1.33-2.49,2-3.76.5-1,.93-2.08,1.41-3.11A1.41,1.41,0,0,1,85.11.82a1.89,1.89,0,0,1,.19,1c0,4.57,0,9.13,0,13.7q0,8.48,0,16.94c0,.5,0,1-.58,1.19a1.73,1.73,0,0,1-1.85-.39,2,2,0,0,1-.24-1c0-3.38,0-6.76,0-10.15V9.35c0-.3,0-.6-.06-.9-.82.12-.95.78-1.21,1.29Q80,12.44,78.7,15.15c-.6,1.23-1.17,2.48-1.77,3.72s-1.18,2.37-1.77,3.56-1.25,2.49-1.89,3.73-1.34,2.51-2,3.78c-.5,1-1,2.08-1.41,3.12a1.43,1.43,0,0,1-1.43.81,1.4,1.4,0,0,1-1.27-.93c-.62-1.44-1.37-2.84-2.06-4.25l-2.61-5.3L59.15,16.6C58,14.31,56.89,12,55.74,9.75c-.23-.46-.52-.89-.79-1.33Z"/><path class="cls-1" d="M48.83,17.83c.14.9-.45,1.51-.86,2.14a34.15,34.15,0,0,1-2.41,3.4,37.31,37.31,0,0,1-5.87,6.11c-1.65,1.25-3.28,2.53-5,3.71a2.69,2.69,0,0,1-3.1,0,41.25,41.25,0,0,1-4.14-2.93,42.06,42.06,0,0,1-4.25-4,31.89,31.89,0,0,1-4.44-5.64c-.32-.57-.71-1.11-1.06-1.66a2.4,2.4,0,0,1,.15-2.7,28.75,28.75,0,0,1,2.47-3.51c1.61-1.87,3.29-3.71,5.05-5.45a36.64,36.64,0,0,1,3.94-3.28,18.61,18.61,0,0,1,3.38-2,2.28,2.28,0,0,1,1.7.37,28,28,0,0,1,3.51,2.41,55.55,55.55,0,0,1,5,4.54c1.51,1.59,2.8,3.41,4.15,5.15a21.73,21.73,0,0,1,1.53,2.29A3,3,0,0,1,48.83,17.83ZM33.22,30.57a21.19,21.19,0,0,0,2.05-1.19,38.54,38.54,0,0,0,3.32-2.65c1.27-1.17,2.45-2.43,3.63-3.68a18.22,18.22,0,0,0,1.39-1.76c.51-.69,1-1.44,1.49-2.1a2,2,0,0,0,.13-2.4c-.62-.84-1.18-1.73-1.85-2.53a60.25,60.25,0,0,0-4-4.57A29.83,29.83,0,0,0,34,5.58a1.37,1.37,0,0,0-1.78,0c-1,.72-2,1.37-3,2.12S27.43,9.18,26.57,10a19.4,19.4,0,0,0-1.84,2q-2.1,2.67-4.1,5.4a1.09,1.09,0,0,0,0,1c.63,1,1.37,1.92,2,2.9a27.45,27.45,0,0,0,4.07,4.67,28.68,28.68,0,0,0,5,3.94C32.17,30.12,32.65,30.3,33.22,30.57Z"/><path class="cls-1" d="M104.67,4.71c-.91,1.72-1.79,3.36-2.64,5-.63,1.21-1.23,2.44-1.85,3.66-.83,1.6-1.68,3.18-2.52,4.78-.75,1.43-1.48,2.86-2.24,4.28s-1.54,2.84-2.28,4.28-1.37,2.79-2.08,4.18c-.45.88-.91,1.75-1.42,2.6a1,1,0,0,1-1.26.4c-.55-.24-1.07-.5-1.1-1.27a4.82,4.82,0,0,1,.84-2.28c.49-1.06,1-2.1,1.55-3.13s1-1.76,1.45-2.65c.54-1,1-2.12,1.59-3.17.36-.72.76-1.42,1.13-2.13L96,15.09l2.44-4.69,1.24-2.33c.65-1.23,1.31-2.46,1.93-3.71.52-1,1-2.07,1.48-3.12.2-.46,1.21-1.32,1.66-1.23a1.81,1.81,0,0,1,1.41,1c.91,1.83,1.91,3.61,2.86,5.41.41.78.75,1.58,1.16,2.35.58,1.11,1.2,2.2,1.79,3.29.5.92,1,1.84,1.48,2.76.68,1.25,1.38,2.49,2,3.75.47.89.88,1.8,1.35,2.68,1.07,2,2.15,4.06,3.24,6.07.78,1.46,1.59,2.9,2.39,4.35a1.62,1.62,0,0,1-.51,2c-1.13.63-1.71.2-2.1-.54-.9-1.74-1.76-3.5-2.67-5.24q-1.68-3.25-3.41-6.48c-.95-1.77-1.95-3.5-2.88-5.27-1.28-2.42-2.51-4.86-3.79-7.28-.65-1.24-1.35-2.45-2-3.67A3,3,0,0,0,104.67,4.71Z"/><path class="cls-1" d="M8.86,33.83a13.78,13.78,0,0,1-2-.8,13,13,0,0,1-3.54-3.29c-1-1.28-2.11-2.53-3-3.87a2.27,2.27,0,0,1-.16-1.65.94.94,0,0,1,1.15-.64,2.31,2.31,0,0,1,1,.71c.58.66,1,1.42,1.64,2.07C5.05,27.6,6.16,28.84,7.36,30s2.17.94,3.27-.09c.63-.59,1.34-1.1,1.93-1.73a15.93,15.93,0,0,0,2.08-2.63,2,2,0,0,0-.1-1.69,14.5,14.5,0,0,0-3.65-3.72C9.1,18.69,7.2,17.39,5.47,15.89a45.5,45.5,0,0,1-4.13-4.2A7,7,0,0,1,.09,9.48,2.46,2.46,0,0,1,.8,7.2a39.85,39.85,0,0,1,3-3.68A20,20,0,0,1,7.06.79,3.41,3.41,0,0,1,10.17.48,8.44,8.44,0,0,1,13.65,3.1C15,4.66,16.29,6.35,17.56,8c.37.49.77,1,.24,1.71s-1.38.93-1.94.23c-.82-1-1.59-2.1-2.42-3.11A14.42,14.42,0,0,0,9.81,3.46,1.53,1.53,0,0,0,8,3.51,21.25,21.25,0,0,0,3.77,7.56C2.66,8.92,3,10,4.06,11c1.44,1.4,2.94,2.75,4.48,4,1.31,1.09,2.75,2,4.07,3.1a22.87,22.87,0,0,1,2.89,2.67A15.6,15.6,0,0,1,17.65,24a2.25,2.25,0,0,1-.29,2.43c-1.31,1.58-2.63,3.16-4,4.7a9.77,9.77,0,0,1-3.29,2.4,4.77,4.77,0,0,1-1.15.2Z"/><path class="cls-1" d="M128.34,17v15.4a1.25,1.25,0,0,1-2,1.2,2.08,2.08,0,0,1-.65-1.28,8.91,8.91,0,0,1,0-1.63V3.52a10,10,0,0,1,0-1.89,2.09,2.09,0,0,1,.84-1.29,1.16,1.16,0,0,1,1.54.26,1.62,1.62,0,0,1,.25.89Q128.35,9.22,128.34,17Z"/></g></svg>