<svg id="Camada_1" data-name="Camada 1" xmlns="http://www.w3.org/2000/svg" viewBox="0 0 18.38 19"><defs><style>.cls-1{fill:#D85127;}</style></defs><title>wm_Prancheta 8</title><path class="cls-1" d="M17.88,19H14.16a.5.5,0,0,1-.5-.5V.5a.5.5,0,0,1,.5-.5h3.72a.5.5,0,0,1,.5.5v18A.5.5,0,0,1,17.88,19Zm-3.22-1h2.72V1H14.66Z"/><path class="cls-1" d="M11.05,19H7.33a.5.5,0,0,1-.5-.5V9.81a.5.5,0,0,1,.5-.5h3.72a.5.5,0,0,1,.5.5V18.5A.5.5,0,0,1,11.05,19ZM7.83,18h2.72V10.31H7.83Z"/><path class="cls-1" d="M4.22,19H.5a.5.5,0,0,1-.5-.5V6.71a.5.5,0,0,1,.5-.5H4.22a.5.5,0,0,1,.5.5V18.5A.5.5,0,0,1,4.22,19ZM1,18H3.72V7.21H1Z"/></svg>