<svg id="Camada_1" data-name="Camada 1" xmlns="http://www.w3.org/2000/svg" viewBox="0 0 20 20"><defs><style>.cls-1{fill:#D85127;}</style></defs><title>wm_Prancheta 25</title><path class="cls-1" d="M17,20H3a3,3,0,0,1-3-3V4.86a3,3,0,0,1,3-3H17a3,3,0,0,1,3,3V17A3,3,0,0,1,17,20ZM3,3.86a1,1,0,0,0-1,1V17a1,1,0,0,0,1,1H17a1,1,0,0,0,1-1V4.86a1,1,0,0,0-1-1Z"/><path class="cls-1" d="M6.9,5.1a1,1,0,0,1-1-1V1a1,1,0,0,1,2,0V4.1A1,1,0,0,1,6.9,5.1Z"/><path class="cls-1" d="M13.1,5.1a1,1,0,0,1-1-1V1a1,1,0,0,1,2,0V4.1A1,1,0,0,1,13.1,5.1Z"/><rect class="cls-1" x="4.72" y="8.14" width="1.24" height="1.24"/><path class="cls-1" d="M6.47,9.88H4.22V7.64H6.47Zm-1.25-1h.25V8.64H5.22Z"/><rect class="cls-1" x="9.38" y="8.14" width="1.24" height="1.24"/><path class="cls-1" d="M11.12,9.88H8.88V7.64h2.24Zm-1.24-1h.24V8.64H9.88Z"/><rect class="cls-1" x="14.03" y="8.14" width="1.24" height="1.24"/><path class="cls-1" d="M15.78,9.88H13.53V7.64h2.25Zm-1.25-1h.25V8.64h-.25Z"/><rect class="cls-1" x="4.72" y="12.79" width="1.24" height="1.24"/><path class="cls-1" d="M6.47,14.53H4.22V12.29H6.47Zm-1.25-1h.25v-.24H5.22Z"/><rect class="cls-1" x="9.38" y="12.79" width="1.24" height="1.24"/><path class="cls-1" d="M11.12,14.53H8.88V12.29h2.24Zm-1.24-1h.24v-.24H9.88Z"/><rect class="cls-1" x="14.03" y="12.79" width="1.24" height="1.24"/><path class="cls-1" d="M15.78,14.53H13.53V12.29h2.25Zm-1.25-1h.25v-.24h-.25Z"/></svg>