<svg id="Camada_1" data-name="Camada 1" xmlns="http://www.w3.org/2000/svg" viewBox="0 0 18.97 19"><defs><style>.cls-1{fill:#D85127;}</style></defs><title>wm_Prancheta 7</title><path class="cls-1" d="M15.39,19a.5.5,0,0,1-.5-.5V4.2a.09.09,0,0,0-.09-.09H.5a.5.5,0,0,1-.5-.5.5.5,0,0,1,.5-.5H14.8A1.09,1.09,0,0,1,15.89,4.2V18.5A.5.5,0,0,1,15.39,19Z"/><path class="cls-1" d="M18.47,15.89H4.18a1.09,1.09,0,0,1-1.1-1.09V.5a.5.5,0,0,1,.5-.5.5.5,0,0,1,.5.5V14.8a.09.09,0,0,0,.1.09H18.47a.5.5,0,0,1,.5.5A.5.5,0,0,1,18.47,15.89Z"/></svg>