<svg id="Camada_1" data-name="Camada 1" xmlns="http://www.w3.org/2000/svg" viewBox="0 0 20.86 25"><defs><style>.cls-1{fill:#D85127;}</style></defs><title>wm_Prancheta 18</title><path class="cls-1" d="M10.43,6a3,3,0,1,1,3-3A3,3,0,0,1,10.43,6Zm0-5a2,2,0,1,0,2,2A2,2,0,0,0,10.43,1Z"/><path class="cls-1" d="M12.09,21.69H8.78a.5.5,0,0,1-.5-.44l-.77-6.18H6.29a.5.5,0,0,1-.5-.5V11.31c0-3.37,1.82-5.52,4.64-5.52s4.64,2.15,4.64,5.47v3.31a.5.5,0,0,1-.5.5H13.36l-.78,6.18A.5.5,0,0,1,12.09,21.69Zm-2.87-1h2.43l.77-6.18a.5.5,0,0,1,.49-.44h1.16V11.31c0-2.21-1-4.52-3.64-4.52S6.79,9.1,6.79,11.26v2.81H8a.5.5,0,0,1,.49.44Z"/><path class="cls-1" d="M10.43,25C5.37,25,0,23.54,0,20.82c0-1.35,1.3-2.72,3.23-3.41a.5.5,0,0,1,.34.94C1.8,19,1,20.07,1,20.82,1,22.33,4.87,24,10.43,24s9.43-1.67,9.43-3.18c0-.75-.8-1.84-2.56-2.47a.5.5,0,0,1,.33-.94c1.93.69,3.23,2.06,3.23,3.41C20.86,23.54,15.49,25,10.43,25Z"/></svg>